<svg id="visual" viewBox="0 0 1920 540" width="1920" height="540" xmlns="http://www.w3.org/2000/svg" xmlns:xlink="http://www.w3.org/1999/xlink" version="1.1"><rect x="0" y="0" width="1920" height="540" fill="#fff"></rect><path d="M0 506L10.3 505.8C20.7 505.7 41.3 505.3 62 506.5C82.7 507.7 103.3 510.3 124 516C144.7 521.7 165.3 530.3 186 529.8C206.7 529.3 227.3 519.7 248 513.5C268.7 507.3 289.3 504.7 310 503.5C330.7 502.3 351.3 502.7 372 502C392.7 501.3 413.3 499.7 433.8 502.8C454.3 506 474.7 514 495.2 520.2C515.7 526.3 536.3 530.7 557 532C577.7 533.3 598.3 531.7 619 524C639.7 516.3 660.3 502.7 681 503.8C701.7 505 722.3 521 743 523.8C763.7 526.7 784.3 516.3 805 516C825.7 515.7 846.3 525.3 867 525.3C887.7 525.3 908.3 515.7 929 511.8C949.7 508 970.3 510 991 513.5C1011.7 517 1032.3 522 1053 518.8C1073.7 515.7 1094.3 504.3 1115 500.3C1135.7 496.3 1156.3 499.7 1177 501.3C1197.7 503 1218.3 503 1239 509C1259.7 515 1280.3 527 1301 526.3C1321.7 525.7 1342.3 512.3 1363 509.2C1383.7 506 1404.3 513 1424.8 515.5C1445.3 518 1465.7 516 1486.2 511.7C1506.7 507.3 1527.3 500.7 1548 503.3C1568.7 506 1589.3 518 1610 521.7C1630.7 525.3 1651.3 520.7 1672 513.5C1692.7 506.3 1713.3 496.7 1734 499.8C1754.7 503 1775.3 519 1796 523.3C1816.7 527.7 1837.3 520.3 1858 516.2C1878.7 512 1899.3 511 1909.7 510.5L1920 510L1920 541L1909.7 541C1899.3 541 1878.7 541 1858 541C1837.3 541 1816.7 541 1796 541C1775.3 541 1754.7 541 1734 541C1713.3 541 1692.7 541 1672 541C1651.3 541 1630.7 541 1610 541C1589.3 541 1568.7 541 1548 541C1527.3 541 1506.7 541 1486.2 541C1465.7 541 1445.3 541 1424.8 541C1404.3 541 1383.7 541 1363 541C1342.3 541 1321.7 541 1301 541C1280.3 541 1259.7 541 1239 541C1218.3 541 1197.7 541 1177 541C1156.3 541 1135.7 541 1115 541C1094.3 541 1073.7 541 1053 541C1032.3 541 1011.7 541 991 541C970.3 541 949.7 541 929 541C908.3 541 887.7 541 867 541C846.3 541 825.7 541 805 541C784.3 541 763.7 541 743 541C722.3 541 701.7 541 681 541C660.3 541 639.7 541 619 541C598.3 541 577.7 541 557 541C536.3 541 515.7 541 495.2 541C474.7 541 454.3 541 433.8 541C413.3 541 392.7 541 372 541C351.3 541 330.7 541 310 541C289.3 541 268.7 541 248 541C227.3 541 206.7 541 186 541C165.3 541 144.7 541 124 541C103.3 541 82.7 541 62 541C41.3 541 20.7 541 10.3 541L0 541Z" fill="#20233f" stroke-linecap="round" stroke-linejoin="miter"></path></svg>