<svg id="visual" viewBox="0 0 1920 540" width="1920" height="540" xmlns="http://www.w3.org/2000/svg" xmlns:xlink="http://www.w3.org/1999/xlink" version="1.1"><rect x="0" y="0" width="1920" height="540" fill="#20233f"></rect><path d="M0 504L10.3 501.5C20.7 499 41.3 494 62 494.2C82.7 494.3 103.3 499.7 124 506.3C144.7 513 165.3 521 186 521.8C206.7 522.7 227.3 516.3 248 516.8C268.7 517.3 289.3 524.7 310 520.8C330.7 517 351.3 502 372 500.5C392.7 499 413.3 511 433.8 514.5C454.3 518 474.7 513 495.2 515.3C515.7 517.7 536.3 527.3 557 530.3C577.7 533.3 598.3 529.7 619 523.3C639.7 517 660.3 508 681 509.5C701.7 511 722.3 523 743 521C763.7 519 784.3 503 805 497.5C825.7 492 846.3 497 867 502.2C887.7 507.3 908.3 512.7 929 510.5C949.7 508.3 970.3 498.7 991 498C1011.7 497.3 1032.3 505.7 1053 509.8C1073.7 514 1094.3 514 1115 517.8C1135.7 521.7 1156.3 529.3 1177 527C1197.7 524.7 1218.3 512.3 1239 506.3C1259.7 500.3 1280.3 500.7 1301 503.2C1321.7 505.7 1342.3 510.3 1363 516.2C1383.7 522 1404.3 529 1424.8 527.3C1445.3 525.7 1465.7 515.3 1486.2 511C1506.7 506.7 1527.3 508.3 1548 513.7C1568.7 519 1589.3 528 1610 526.7C1630.7 525.3 1651.3 513.7 1672 509.3C1692.7 505 1713.3 508 1734 505.5C1754.7 503 1775.3 495 1796 498.2C1816.7 501.3 1837.3 515.7 1858 520.3C1878.7 525 1899.3 520 1909.7 517.5L1920 515L1920 541L1909.7 541C1899.3 541 1878.7 541 1858 541C1837.3 541 1816.7 541 1796 541C1775.3 541 1754.7 541 1734 541C1713.3 541 1692.7 541 1672 541C1651.3 541 1630.7 541 1610 541C1589.3 541 1568.7 541 1548 541C1527.3 541 1506.7 541 1486.2 541C1465.7 541 1445.3 541 1424.8 541C1404.3 541 1383.7 541 1363 541C1342.3 541 1321.7 541 1301 541C1280.3 541 1259.7 541 1239 541C1218.3 541 1197.7 541 1177 541C1156.3 541 1135.7 541 1115 541C1094.3 541 1073.7 541 1053 541C1032.3 541 1011.7 541 991 541C970.3 541 949.7 541 929 541C908.3 541 887.7 541 867 541C846.3 541 825.7 541 805 541C784.3 541 763.7 541 743 541C722.3 541 701.7 541 681 541C660.3 541 639.7 541 619 541C598.3 541 577.7 541 557 541C536.3 541 515.7 541 495.2 541C474.7 541 454.3 541 433.8 541C413.3 541 392.7 541 372 541C351.3 541 330.7 541 310 541C289.3 541 268.7 541 248 541C227.3 541 206.7 541 186 541C165.3 541 144.7 541 124 541C103.3 541 82.7 541 62 541C41.3 541 20.7 541 10.3 541L0 541Z" fill="#fff" stroke-linecap="round" stroke-linejoin="miter"></path></svg>